<svg xmlns="http://www.w3.org/2000/svg" viewBox="0 0 800 600" preserveAspectRatio="none" width="800" height="600"><path d="M0,0H800V600H0Z" style="fill: white;"></path><g><g transform="translate(96,48)"><path d="M0,0H608V480H0Z" style="fill: white; stroke: black; stroke-width: 1;"></path><svg x="0" y="0" overflow="hidden" width="608" height="480" viewBox="0 0 608 480"><g><path d="M0,480h61v-2h61v-23h60v-151h61v-278h61v-3h61v273h61v156h60v26h61v2h61L608,483H0Z" style="stroke-linejoin: miter; stroke: rgb(0, 0, 154); stroke-width: 1; fill: red;"></path></g></svg><g><g transform="translate(0,480)"><path d="M0,0h608M0,-14V0M12,-7V0M24,-7V0M36,-7V0M49,-7V0M61,-14V0M73,-7V0M85,-7V0M97,-7V0M109,-7V0M122,-14V0M134,-7V0M146,-7V0M158,-7V0M170,-7V0M182,-14V0M195,-7V0M207,-7V0M219,-7V0M231,-7V0M243,-14V0M255,-7V0M268,-7V0M280,-7V0M292,-7V0M304,-14V0M316,-7V0M328,-7V0M340,-7V0M353,-7V0M365,-14V0M377,-7V0M389,-7V0M401,-7V0M413,-7V0M426,-14V0M438,-7V0M450,-7V0M462,-7V0M474,-7V0M486,-14V0M499,-7V0M511,-7V0M523,-7V0M535,-7V0M547,-14V0M559,-7V0M572,-7V0M584,-7V0M596,-7V0M608,-14V0" style="stroke: black; stroke-width: 1;"></path><g font-family="Arial" font-size="12" xml:space="preserve" fill="black" text-anchor="middle"><text dy=".8em" transform="translate(0,5)">-5</text><text dy=".8em" transform="translate(61,5)">-4</text><text dy=".8em" transform="translate(122,5)">-3</text><text dy=".8em" transform="translate(182,5)">-2</text><text dy=".8em" transform="translate(243,5)">-1</text><text dy=".8em" transform="translate(304,5)">0</text><text dy=".8em" transform="translate(365,5)">1</text><text dy=".8em" transform="translate(426,5)">2</text><text dy=".8em" transform="translate(486,5)">3</text><text dy=".8em" transform="translate(547,5)">4</text><text dy=".8em" transform="translate(608,5)">5</text></g><g font-family="Arial" font-size="21" xml:space="preserve" transform="translate(608,34)"><text fill="black" text-anchor="end" dominant-baseline="middle">py</text></g></g><g><path d="M0,0v480M19,480H0M10,469H0M10,459H0M10,448H0M10,437H0M19,427H0M10,416H0M10,406H0M10,395H0M10,384H0M19,374H0M10,363H0M10,352H0M10,342H0M10,331H0M19,321H0M10,310H0M10,299H0M10,289H0M10,278H0M19,267H0M10,257H0M10,246H0M10,236H0M10,225H0M19,214H0M10,204H0M10,193H0M10,182H0M10,172H0M19,161H0M10,150H0M10,140H0M10,129H0M10,119H0M19,108H0M10,97H0M10,87H0M10,76H0M10,65H0M19,55H0M10,44H0M10,34H0M10,23H0M10,12H0M19,2H0" style="stroke: black; stroke-width: 1;"></path><g font-family="Arial" font-size="12" xml:space="preserve" fill="black" text-anchor="end"><text dominant-baseline="middle" transform="translate(-4,480)">0</text><text dominant-baseline="middle" transform="translate(-4,427)">1000</text><text dominant-baseline="middle" transform="translate(-4,374)">2000</text><text dominant-baseline="middle" transform="translate(-4,321)">3000</text><text dominant-baseline="middle" transform="translate(-4,267)">4000</text><text dominant-baseline="middle" transform="translate(-4,214)">5000</text><text dominant-baseline="middle" transform="translate(-4,161)">6000</text><text dominant-baseline="middle" transform="translate(-4,108)">7000</text><text dominant-baseline="middle" transform="translate(-4,55)">8000</text><text dominant-baseline="middle" transform="translate(-4,2)">9000</text></g><g font-family="Arial" font-size="21" xml:space="preserve" transform="translate(-45)"><text fill="black" text-anchor="end" dominant-baseline="middle" transform="rotate(270)">Entries</text></g></g></g></g><g transform="translate(624,39)" font-family="Arial" font-size="20" xml:space="preserve" fill="black"><path d="M0,0H160V96H0Z" style="fill: white; stroke: black; stroke-width: 1;"></path><text text-anchor="middle" dominant-baseline="middle" transform="translate(80,12)">h1</text><text text-anchor="start" dominant-baseline="middle" transform="translate(8,36)">Entries</text><text text-anchor="end" dominant-baseline="middle" transform="translate(152,36)">25000</text><text text-anchor="start" dominant-baseline="middle" transform="translate(8,60)">Mean</text><text text-anchor="end" dominant-baseline="middle" transform="translate(152,60)">0.01352</text><text text-anchor="start" dominant-baseline="middle" transform="translate(8,84)">Std Dev</text><text text-anchor="end" dominant-baseline="middle" transform="translate(152,84)">1.036</text><path d="M0,24h160" style="stroke: black; stroke-width: 1;"></path></g><g transform="translate(294,3)" font-family="Arial" font-size="30" xml:space="preserve"><text fill="black" text-anchor="middle" dominant-baseline="middle" transform="translate(106,20)">py Distribution</text></g></g></svg>